{
    "asset" : {
        "generator" : "Khronos glTF Blender I/O v1.5.17",
        "version" : "2.0"
    },
    "scene" : 0,
    "scenes" : [
        {
            "name" : "Scene",
            "nodes" : [
                0
            ]
        }
    ],
    "nodes" : [
        {
            "mesh" : 0,
            "name" : "Plane.002",
            "rotation" : [
                0.13680243492126465,
                0.9588349461555481,
                0.0446174293756485,
                0.2448059767484665
            ],
            "scale" : [
                0.7119672894477844,
                0.7125628590583801,
                1.7494592666625977
            ],
            "translation" : [
                0,
                0,
                0.045172128826379776
            ]
        }
    ],
    "animations" : [
        {
            "channels" : [
                {
                    "sampler" : 0,
                    "target" : {
                        "node" : 0,
                        "path" : "rotation"
                    }
                }
            ],
            "name" : "Plane.002Action.001",
            "samplers" : [
                {
                    "input" : 8,
                    "interpolation" : "LINEAR",
                    "output" : 9
                }
            ]
        }
    ],
    "materials" : [
        {
            "doubleSided" : true,
            "name" : "Material.001",
            "pbrMetallicRoughness" : {
                "baseColorFactor" : [
                    0.002477807691320777,
                    0.002775563159957528,
                    0.11927571147680283,
                    1
                ],
                "metallicFactor" : 0,
                "roughnessFactor" : 0.5
            }
        },
        {
            "doubleSided" : true,
            "name" : "Material.002",
            "pbrMetallicRoughness" : {
                "baseColorFactor" : [
                    0.005105999764055014,
                    1.0598203516565263e-05,
                    0.03967665135860443,
                    1
                ],
                "metallicFactor" : 0,
                "roughnessFactor" : 0.4000000059604645
            }
        }
    ],
    "meshes" : [
        {
            "name" : "Plane.002",
            "primitives" : [
                {
                    "attributes" : {
                        "POSITION" : 0,
                        "NORMAL" : 1,
                        "TEXCOORD_0" : 2
                    },
                    "indices" : 3,
                    "material" : 0
                },
                {
                    "attributes" : {
                        "POSITION" : 4,
                        "NORMAL" : 5,
                        "TEXCOORD_0" : 6
                    },
                    "indices" : 7,
                    "material" : 1
                }
            ]
        }
    ],
    "accessors" : [
        {
            "bufferView" : 0,
            "componentType" : 5126,
            "count" : 867,
            "max" : [
                4.578116416931152,
                1.7452912330627441,
                2.3147077560424805
            ],
            "min" : [
                -5.155614852905273,
                -1.5456444025039673,
                -1.3654344081878662
            ],
            "type" : "VEC3"
        },
        {
            "bufferView" : 1,
            "componentType" : 5126,
            "count" : 867,
            "type" : "VEC3"
        },
        {
            "bufferView" : 2,
            "componentType" : 5126,
            "count" : 867,
            "type" : "VEC2"
        },
        {
            "bufferView" : 3,
            "componentType" : 5123,
            "count" : 4608,
            "type" : "SCALAR"
        },
        {
            "bufferView" : 4,
            "componentType" : 5126,
            "count" : 41233,
            "max" : [
                1.4449882507324219,
                1.2514209747314453,
                0.5839210152626038
            ],
            "min" : [
                -1.4904223680496216,
                -1.6338672637939453,
                -0.5319027900695801
            ],
            "type" : "VEC3"
        },
        {
            "bufferView" : 5,
            "componentType" : 5126,
            "count" : 41233,
            "type" : "VEC3"
        },
        {
            "bufferView" : 6,
            "componentType" : 5126,
            "count" : 41233,
            "type" : "VEC2"
        },
        {
            "bufferView" : 7,
            "componentType" : 5123,
            "count" : 221184,
            "type" : "SCALAR"
        },
        {
            "bufferView" : 8,
            "componentType" : 5126,
            "count" : 31,
            "max" : [
                1.25
            ],
            "min" : [
                0
            ],
            "type" : "SCALAR"
        },
        {
            "bufferView" : 9,
            "componentType" : 5126,
            "count" : 31,
            "type" : "VEC4"
        }
    ],
    "bufferViews" : [
        {
            "buffer" : 0,
            "byteLength" : 10404,
            "byteOffset" : 0
        },
        {
            "buffer" : 0,
            "byteLength" : 10404,
            "byteOffset" : 10404
        },
        {
            "buffer" : 0,
            "byteLength" : 6936,
            "byteOffset" : 20808
        },
        {
            "buffer" : 0,
            "byteLength" : 9216,
            "byteOffset" : 27744
        },
        {
            "buffer" : 0,
            "byteLength" : 494796,
            "byteOffset" : 36960
        },
        {
            "buffer" : 0,
            "byteLength" : 494796,
            "byteOffset" : 531756
        },
        {
            "buffer" : 0,
            "byteLength" : 329864,
            "byteOffset" : 1026552
        },
        {
            "buffer" : 0,
            "byteLength" : 442368,
            "byteOffset" : 1356416
        },
        {
            "buffer" : 0,
            "byteLength" : 124,
            "byteOffset" : 1798784
        },
        {
            "buffer" : 0,
            "byteLength" : 496,
            "byteOffset" : 1798908
        }
    ],
    "buffers" : [
        {
            "byteLength" : 1799404,
            "uri" : "data:application/octet-stream;base64,"
        }
    ]
}